<?xml version="1.0" encoding="utf-8"?>
<!-- Generator: Adobe Illustrator 26.3.1, SVG Export Plug-In . SVG Version: 6.00 Build 0)  -->
<svg version="1.1" xmlns="http://www.w3.org/2000/svg" xmlns:xlink="http://www.w3.org/1999/xlink" x="0px" y="0px"
	 viewBox="0 0 324.7 263.8" style="enable-background:new 0 0 324.7 263.8;" xml:space="preserve">

<g id="Background">
</g>
<g id="Graphic_Elements">
	<g>
		<path class="st0" d="M320.1,178.5c-6.3-0.2-12.6-0.7-18.8-1.7c-36.7-5.7-57.2-26.5-73.4-50c8.6-21.3,7.8-46.1-1.4-67.4
			c-2.2-5.1-4.8-10-7.8-14.6C184.7-7.6,107.2-14.6,66,32.7c-1.4,1.7-2.9,3.4-4.2,5.2c-1.1,1.4-2,2.9-3,4.4
			c-2.8,4.4-5.3,9.1-7.3,13.9c-1,2.4-1.8,4.8-2.6,7.3c-2,7-3.2,14.4-3,21.7c0,0.4,0.3,0.8,0.7,0.9c0.6,0.2,1.2,0,1.4-0.6
			c6.2-23.9,22.8-44.8,44.5-56.1c1.4-0.7,2.8-1.4,4.2-2c1.3-0.5,3-1.3,4.3-1.8c46.9-18.8,100.8,5.8,116.6,53.9
			c0.2,0.7,0.8,2.6,1,3.3c0.2,0.7,0.7,2.6,0.9,3.4c0.2,0.7,0.6,2.7,0.8,3.4c0.1,0.7,0.5,2.7,0.6,3.4c1.3,8,1.5,16.2,0.7,24.3
			c-21.2-33.2-37.4-68.3-80.4-72.2c-1.2-0.1-2.6-0.2-3.9-0.2l-1.3,0c-1.1-0.1-2.3,0.1-3.4,0.1c-2.4,0.2-4.8,0.5-7.1,1
			C101.9,50.6,83,68.4,71.7,89c-0.3,0.5-0.1,1,0.4,1.3l1.4,0.8c0.3,0.2,0.7,0.2,1-0.1c3.6-2.7,7.4-5.3,11.2-7.8
			c3.4-1.3,6.9-2,10.5-2.1l1.2,0c0.4,0,0.8,0.1,1.2,0.1c0.4,0,0.8,0,1.2,0.1l1.2,0.2c0.4,0,0.8,0.2,1.2,0.2c1.2,0.3,2.3,0.6,3.4,1
			c1.5,0.5,2.9,1.2,4.2,2c0.7,0.4,1.3,0.8,2,1.3c0.3,0.2,0.6,0.4,1,0.7c0.3,0.3,1.1,0.8,1.4,1.1c0.3,0.3,1,0.9,1.3,1.2
			c0.5,0.5,1.2,1.2,1.6,1.7c7.6,8.3,11.8,19.5,12.9,30.6c0.4,4.8,0.2,9.7-0.6,14.4c-0.6,3.9-1.4,7.6-2.4,11.3
			c-0.2,0.7-0.4,1.5-0.6,2.2c-0.2,0.7-0.5,1.4-0.7,2.2c-0.2,0.6-0.5,1.5-0.7,2.2c-1,2.8-2.2,5.6-3.7,8.3l-0.6,1
			c-0.3,0.6-0.8,1.4-1.2,1.9c-0.2,0.3-0.8,1.1-0.9,1.4c-0.2,0.3-0.8,1.1-1,1.4c-0.5,0.6-0.9,1.2-1.4,1.7c-1.8,2.1-3.9,4-6.4,5.7
			c-10.4-6.4-17.5-16.3-25.9-26.4c-10.9-13.1-23.8-22.1-41.8-21.4c-0.8,0-1.6,0.1-2.5,0.1c-0.7,0.1-1.8,0.2-2.5,0.3
			c-7,1.2-13.7,4.2-19.2,8.6c-3.9,3.1-7.2,6.8-9.7,10.9c-0.4,0.6,0,1.3,0.6,1.4c0.1,0.1,0.3,0.1,0.4,0.1c1.6-0.6,3.1-1.2,4.7-1.6
			c0.8-0.2,1.6-0.4,2.4-0.5c0.8-0.1,1.6-0.2,2.3-0.2c3.1-0.2,6,0.3,8.5,1.4c1.3,0.5,2.5,1.2,3.7,1.9c1.2,0.7,2.3,1.6,3.4,2.5
			c2.2,1.9,4.1,4.4,5.3,7.2c0.6,1.4,1,2.9,1.3,4.5c0.1,0.8,0.3,1.6,0.3,2.3c0,0.4,0.1,0.8,0.1,1.2c0,0.4,0,0.8,0,1.2
			c0,3.1-0.7,6.3-2.1,9.2c-0.7,1.5-1.6,2.8-2.6,4.1c-1.1,1.2-2.3,2.4-3.6,3.3c-0.7,0.5-1.4,0.9-2.1,1.3c-0.8,0.4-1.5,0.7-2.3,0.9
			c-1.5,0.5-3,0.7-4.6,0.8c-0.2,0-0.4,0.2-0.5,0.4c0,0.2,0.1,0.5,0.4,0.5c0.8,0.1,1.5,0.2,2.3,0.2c0.5,0,0.9,0,1.4,0c0,0,0,0,0,0
			c0.5,0,0.9-0.1,1.4-0.1c0.9-0.1,1.8-0.3,2.8-0.6c0.9-0.3,1.8-0.6,2.7-1c0.4-0.2,0.9-0.4,1.3-0.7c0.4-0.2,0.8-0.5,1.2-0.8
			c0.8-0.5,1.6-1.1,2.3-1.8c1.4-1.3,2.7-2.7,3.8-4.3c1.1-1.6,2-3.4,2.7-5.2c0.7-1.8,1.2-3.8,1.4-5.8c0.1-0.5,0.1-1,0.1-1.5
			c0-0.5,0-1,0.1-1.5c0-1,0-2-0.1-3c-0.2-2-0.5-3.9-1.1-5.9c-1.1-3.8-2.9-7.6-5.6-10.9c-2.7-3.2-6.5-5.7-10.7-6.7
			c-0.8-0.2-1.6-0.3-2.3-0.4c9.2-2.3,18.9-1.3,27.9,4c1,0.6,2,1.3,2.9,2c9.5,7.3,14.9,18.3,22.6,28c8.9,11.7,20.9,21.1,35.3,25
			c6.2,1.8,12.6,2.7,19,2.9c2.7,0.1,5.5,0.1,8.2,0c28-1.4,56.4-16.6,69.9-41.5c0.4-0.7,0.7-1.4,1-2c0.2-0.4,0.3-0.7,0.5-1.1
			c0.4,0.4,0.8,0.8,1.2,1.2c16.3,16.3,37.9,28.5,61,30.8c15.1,1.6,29.9-0.5,43.7-6.4c0.3-0.2,0.6-0.5,0.6-0.9v-1.6
			C321,179,320.6,178.5,320.1,178.5z M203.6,158c-17.3,17.7-43.2,26.8-67.6,24.7c-5-0.4-9.9-1.2-14.6-2.6c0.7-0.3,1.5-0.7,2.2-1.1
			c1-0.5,1.8-1.1,2.7-1.7c0.6-0.4,1.3-1,1.9-1.4c0.4-0.3,1.4-1.2,1.8-1.5c0.4-0.4,0.8-0.7,1.2-1.1c0.8-0.7,1.5-1.5,2.2-2.3
			c11.6-12.7,14.8-29.6,11.8-46.1c-0.6-3.9-1.5-7.8-2.6-11.6c-3.4-11.4-9.5-22.3-18.8-30c-0.7-0.6-1.7-1.3-2.4-1.8
			c-0.4-0.3-1.5-1-1.9-1.3c-0.4-0.3-1.5-0.9-2-1.2c-1.3-0.7-2.7-1.4-4.1-2c-1.9-0.7-3.8-1.4-5.8-1.8c-1.5-0.3-3-0.5-4.5-0.6
			c-0.4,0-0.9-0.1-1.3-0.1c6.7-2.9,13.7-4.9,21-5.4c0.6-0.1,1.2-0.1,1.8-0.1c0.6,0,1.2,0,1.8,0l1.8,0c0.6,0,1.2,0.1,1.7,0.1l1.7,0.2
			c1,0.1,2,0.2,2.9,0.4c0.2,0.1,0.5,0.2,0.7,0.3c0.3,0.1,0.7,0.3,1.1,0.4l0.8,0.2c0.6,0.2,1.2,0.3,1.7,0.5c5.2,1.6,10,3.8,14.3,7
			c2.4,1.8,4.8,3.8,6.9,6c1.2,1.1,2.3,2.4,3.4,3.7l0.6,0.7c13.1,15.7,21.3,32.1,34.9,49.9c3.2,4.3,6.7,8.5,10.4,12.6
			C207.7,153.4,205.7,155.8,203.6,158z"/>
		<g>
			<path class="st0" d="M94.4,216.2l-8.2,31.7h-7.6l-5.1-25.3L68,247.9h-7.6l-8-31.7l6.8-1.6l4.9,26.7l5.6-26h7.5l5.4,26l5.3-26.6
				L94.4,216.2z"/>
			<path class="st0" d="M105.7,233.1h3.9v-0.8c0-2.7-0.8-4.2-4.5-4.2c-2.3,0-4.3,0.5-6.5,1.6l-1.7-4.2c2.4-1.6,5.8-2.6,9-2.6
				c6.2,0,9.5,3,9.5,9.4v15.7H111l-0.7-2.1c-2.5,1.9-5.2,2.7-7.3,2.7c-4.8,0-7.4-2.8-7.4-7.7C95.6,235.8,99.1,233.1,105.7,233.1z
				 M109.6,241.9v-4.8h-3.3c-3.3,0-5.1,1.3-5.1,3.8c0,1.8,1,2.9,3,2.9C106.4,243.8,108.5,242.8,109.6,241.9z"/>
			<path class="st0" d="M123.7,222.8l5.6,19.3l5.6-19.4l6,1.8l-8.5,23.5h-6.4l-8.5-23.4L123.7,222.8z"/>
			<path class="st0" d="M163.5,235c0,1.1-0.1,2.2-0.2,2.8h-14.5c0.2,3.8,2.3,5.9,6.7,5.9c1.8,0,4.5-0.6,6.2-1.3l1.4,4.2
				c-2,1.2-5.6,2.1-8.3,2.1c-8.2,0-12.2-4.4-12.2-12.9c0-8.1,4.2-12.9,10.9-12.9C159.9,222.9,163.5,227.3,163.5,235z M148.7,233.6
				h8.8c0-4.2-1.3-6-4.3-6C150.4,227.6,148.8,229.8,148.7,233.6z"/>
			<path class="st0" d="M164.2,249.6h24.7v4.3h-24.7V249.6z"/>
			<path class="st0" d="M230.2,216.2l-8.2,31.7h-7.6l-5.1-25.3l-5.5,25.3h-7.6l-8-31.7l6.8-1.6l4.9,26.7l5.6-26h7.5l5.4,26l5.3-26.6
				L230.2,216.2z"/>
			<path class="st0" d="M241.5,233.1h3.9v-0.8c0-2.7-0.8-4.2-4.5-4.2c-2.3,0-4.3,0.5-6.5,1.6l-1.7-4.2c2.4-1.6,5.8-2.6,9-2.6
				c6.2,0,9.5,3,9.5,9.4v15.7h-4.3l-0.7-2.1c-2.5,1.9-5.2,2.7-7.3,2.7c-4.8,0-7.4-2.8-7.4-7.7C231.4,235.8,234.9,233.1,241.5,233.1z
				 M245.4,241.9v-4.8h-3.3c-3.3,0-5.1,1.3-5.1,3.8c0,1.8,1,2.9,3,2.9C242.2,243.8,244.3,242.8,245.4,241.9z"/>
			<path class="st0" d="M269.1,245.4c-2.2,6.1-5,10.4-8.9,12.9l-3.8-3.5c2.6-2.3,4.2-4.1,5.6-6.7l-8.6-23.7l6.1-1.7l5.5,19.1
				l5.5-19.2l6.1,1.8L269.1,245.4z"/>
		</g>
	</g>
</g>
</svg>
